<svg width="373" height="427" viewBox="0 0 373 427" fill="none" xmlns="http://www.w3.org/2000/svg">
<g clip-path="url(#clip0_5_2)">
<path d="M234.667 0H134.4C113.067 0 93.8667 17.0667 93.8667 40.5333V59.7333C93.8667 81.0667 110.933 100.267 134.4 100.267H234.667C256 100.267 275.2 83.2 275.2 59.7333V40.5333C275.2 17.0667 258.133 0 234.667 0Z" fill="#0D52FF"/>
<path d="M296.533 59.7333C296.533 93.8667 268.8 121.6 234.667 121.6H134.4C100.267 121.6 72.5333 93.8667 72.5333 59.7333C72.5333 46.9333 59.7333 40.5333 49.0667 44.8C19.2 61.8667 0 93.8667 0 130.133V330.667C0 384 42.6667 426.667 96 426.667H277.333C330.667 426.667 373.333 384 373.333 330.667V130.133C373.333 93.8667 352 61.8667 322.133 46.9333C309.333 40.5333 296.533 49.0667 296.533 59.7333ZM194.133 317.867H100.267C91.7333 317.867 83.2 311.467 83.2 300.8C83.2 292.267 89.6 285.867 100.267 285.867H194.133C202.667 285.867 211.2 292.267 211.2 300.8C209.067 311.467 202.667 317.867 194.133 317.867ZM249.6 232.533H100.267C91.7333 232.533 83.2 226.133 83.2 215.467C83.2 204.8 89.6 198.4 100.267 198.4H249.6C258.133 198.4 266.667 204.8 266.667 215.467C266.667 226.133 258.133 232.533 249.6 232.533Z" fill="#0D52FF"/>
</g>
<defs>
<clipPath id="clip0_5_2">
<rect width="373" height="427" fill="white"/>
</clipPath>
</defs>
</svg>
