<svg width="354" height="88" viewBox="0 0 354 88" fill="none" xmlns="http://www.w3.org/2000/svg">
<path d="M26.9655 71.0028C22.8261 71.0028 18.9232 70.2636 15.2568 68.7853C11.6496 67.2478 8.51544 65.0893 5.85436 62.31C3.25242 59.5306 1.30097 56.2487 0 52.464L11.2652 47.408C12.921 51.0152 15.1977 53.8537 18.0953 55.9234C21.052 57.9931 24.3045 59.028 27.8526 59.028C29.7449 59.028 31.3711 58.7323 32.7312 58.141C34.0913 57.5496 35.1557 56.7513 35.9245 55.746C36.6932 54.6816 37.0776 53.4397 37.0776 52.0205C37.0776 50.483 36.6045 49.182 35.6584 48.1176C34.7122 46.994 33.2338 46.107 31.2233 45.4565L18.2727 41.1988C13.0097 39.4839 9.04765 37.0594 6.38658 33.9252C3.7255 30.7319 2.39497 26.9177 2.39497 22.4826C2.39497 18.5797 3.34113 15.1499 5.23344 12.1931C7.1849 9.23636 9.87554 6.9301 13.3054 5.27432C16.7943 3.61854 20.7859 2.79065 25.2802 2.79065C29.2422 2.79065 32.9086 3.4707 36.2793 4.83081C39.65 6.19091 42.5476 8.1128 44.9721 10.5965C47.4558 13.0801 49.3186 16.0664 50.5604 19.5554L39.3839 24.6114C38.1421 21.5364 36.2793 19.1415 33.7956 17.4266C31.312 15.6525 28.4735 14.7655 25.2802 14.7655C23.447 14.7655 21.8208 15.0612 20.4016 15.6525C18.9823 16.2438 17.8883 17.1013 17.1196 18.2249C16.3508 19.2893 15.9664 20.5311 15.9664 21.9504C15.9664 23.4879 16.4691 24.848 17.4744 26.0307C18.4797 27.1543 19.9876 28.0413 21.9982 28.6918L34.6827 32.7721C40.0048 34.487 43.9668 36.882 46.5688 39.957C49.2299 43.032 50.5604 46.7871 50.5604 51.2222C50.5604 55.066 49.5551 58.4958 47.5445 61.5117C45.5339 64.4684 42.7546 66.8042 39.2065 68.5192C35.7175 70.1749 31.6372 71.0028 26.9655 71.0028Z" fill="#0D52FF"/>
<path d="M59.3828 69.9384V21.5069H71.8012V31.0867L71.0915 28.9579C72.2151 26.0603 74.0187 23.9314 76.5024 22.5713C79.0452 21.1521 82.0019 20.4424 85.3726 20.4424C89.039 20.4424 92.2323 21.2112 94.9525 22.7487C97.7318 24.2862 99.8903 26.4446 101.428 29.224C102.965 31.9442 103.734 35.1375 103.734 38.8038V69.9384H90.4287V41.6423C90.4287 39.75 90.0443 38.1238 89.2755 36.7637C88.5659 35.4036 87.5311 34.3392 86.171 33.5704C84.87 32.8016 83.3325 32.4173 81.5584 32.4173C79.8435 32.4173 78.306 32.8016 76.9459 33.5704C75.5858 34.3392 74.5214 35.4036 73.7526 36.7637C73.043 38.1238 72.6882 39.75 72.6882 41.6423V69.9384H59.3828Z" fill="#0D52FF"/>
<path d="M127.474 71.0028C123.985 71.0028 120.969 70.441 118.426 69.3175C115.883 68.1939 113.932 66.5973 112.572 64.5275C111.212 62.3987 110.532 59.8855 110.532 56.9878C110.532 54.2676 111.152 51.8727 112.394 49.8029C113.636 47.6741 115.528 45.9 118.071 44.4808C120.673 43.0616 123.896 42.0563 127.74 41.4649L142.553 39.0699V48.8272L130.135 51.0448C128.242 51.3996 126.794 52.0205 125.788 52.9075C124.783 53.7354 124.28 54.9477 124.28 56.5443C124.28 58.0227 124.842 59.1758 125.966 60.0037C127.089 60.8316 128.479 61.2456 130.135 61.2456C132.323 61.2456 134.245 60.7725 135.9 59.8263C137.556 58.8802 138.828 57.6088 139.715 56.0121C140.661 54.3563 141.134 52.5527 141.134 50.6013V38.0055C141.134 36.1723 140.395 34.6348 138.916 33.393C137.497 32.1512 135.546 31.5302 133.062 31.5302C130.697 31.5302 128.597 32.1807 126.764 33.4817C124.99 34.7827 123.689 36.4976 122.861 38.6264L112.217 33.5704C113.163 30.8502 114.671 28.5144 116.741 26.5629C118.81 24.6115 121.294 23.1035 124.192 22.0391C127.089 20.9746 130.253 20.4424 133.683 20.4424C137.763 20.4424 141.37 21.1816 144.505 22.66C147.639 24.1384 150.063 26.2081 151.778 28.8692C153.552 31.4711 154.439 34.5166 154.439 38.0055V69.9384H142.021V62.1326L145.037 61.6004C143.618 63.7292 142.05 65.5033 140.336 66.9225C138.621 68.2826 136.699 69.2879 134.57 69.9384C132.441 70.648 130.076 71.0028 127.474 71.0028Z" fill="#0D52FF"/>
<path d="M164.197 87.6789V21.5069H176.616V30.7319L175.462 28.0708C177.059 25.6463 179.218 23.7836 181.938 22.4826C184.717 21.1225 187.881 20.4424 191.429 20.4424C196.041 20.4424 200.21 21.566 203.936 23.8131C207.661 26.0603 210.618 29.1057 212.806 32.9495C214.994 36.7341 216.088 40.9918 216.088 45.7226C216.088 50.3943 214.994 54.652 212.806 58.4958C210.677 62.3396 207.75 65.385 204.025 67.6321C200.299 69.8793 196.071 71.0028 191.34 71.0028C188.029 71.0028 184.954 70.4115 182.115 69.2288C179.336 67.9869 177.089 66.1833 175.374 63.8179L177.503 61.0682V87.6789H164.197ZM189.744 59.028C192.227 59.028 194.415 58.4662 196.308 57.3426C198.2 56.2191 199.678 54.652 200.743 52.6414C201.807 50.6308 202.339 48.3246 202.339 45.7226C202.339 43.1207 201.807 40.844 200.743 38.8925C199.678 36.882 198.2 35.3149 196.308 34.1913C194.415 33.0086 192.227 32.4173 189.744 32.4173C187.378 32.4173 185.249 32.979 183.357 34.1026C181.524 35.2262 180.075 36.7933 179.011 38.8038C178.005 40.8144 177.503 43.1207 177.503 45.7226C177.503 48.3246 178.005 50.6308 179.011 52.6414C180.075 54.652 181.524 56.2191 183.357 57.3426C185.249 58.4662 187.378 59.028 189.744 59.028Z" fill="#0D52FF"/>
<path d="M217.535 0V14.4578H234.69V69.5486H251.852V14.8482H265.817L270.606 0.000453643L217.535 0ZM273.801 8.20456C273.801 3.67426 277.546 0 282.174 0C286.805 0 290.555 3.67426 290.555 8.20456C290.555 12.7353 286.807 16.4096 282.174 16.4096C277.546 16.4073 273.801 12.7353 273.801 8.20456ZM273.801 22.272H290.555V69.5486H273.801V22.272ZM297.739 0V69.5481H314.499V51.5767L319.687 46.8839L336.045 69.9385H354L330.455 36.3368L351.604 16.017H331.255L314.499 32.4265V0H297.739Z" fill="#0F172A"/>
</svg>
